<svg width="249" height="38" viewBox="0 0 249 38" fill="none" xmlns="http://www.w3.org/2000/svg">
<path d="M10.528 7.6C12.5973 7.6 14.3147 8.29333 15.68 9.68C17.0667 11.0453 17.76 12.752 17.76 14.8C17.76 16.8267 17.0667 18.5333 15.68 19.92C14.3147 21.3067 12.5973 22 10.528 22H5.376V30H2.4V7.6H10.528ZM10.528 19.216C11.7653 19.216 12.7893 18.8 13.6 17.968C14.4107 17.1147 14.816 16.0587 14.816 14.8C14.816 13.52 14.4107 12.464 13.6 11.632C12.7893 10.8 11.7653 10.384 10.528 10.384H5.376V19.216H10.528ZM40.315 30L35.291 21.424H30.011V30H27.035V7.6H35.995C37.915 7.6 39.5577 8.28267 40.923 9.648C42.2883 10.992 42.971 12.624 42.971 14.544C42.971 15.9947 42.5337 17.3173 41.659 18.512C40.8057 19.7067 39.6963 20.5493 38.331 21.04L43.611 30H40.315ZM30.011 10.384V18.736H35.995C37.1043 18.736 38.043 18.3307 38.811 17.52C39.6003 16.688 39.995 15.696 39.995 14.544C39.995 13.392 39.6003 12.4107 38.811 11.6C38.043 10.7893 37.1043 10.384 35.995 10.384H30.011ZM100.838 7.6V30H97.8935V12.496L90.5655 24.688H90.1815L82.8535 12.528V30H79.8775V7.6H83.2375L90.3735 19.44L97.4775 7.6H100.838ZM114.364 27.184H124.764V30H111.388V7.6H124.604V10.416H114.364V17.296H123.804V20.08H114.364V27.184ZM137.092 27.184H146.756V30H134.116V7.6H137.092V27.184ZM170.878 30L169.054 24.976H158.974L157.15 30H153.982L162.334 7.6H165.694L174.046 30H170.878ZM159.998 22.192H168.03L163.998 11.152L159.998 22.192ZM196 28.272C194.442 29.7013 192.426 30.416 189.952 30.416C187.477 30.416 185.45 29.7013 183.872 28.272C182.314 26.8213 181.536 24.8907 181.536 22.48V7.6H184.512V22.352C184.512 23.9307 184.981 25.1893 185.92 26.128C186.858 27.0453 188.202 27.504 189.952 27.504C191.701 27.504 193.045 27.0453 193.984 26.128C194.922 25.1893 195.392 23.9307 195.392 22.352V7.6H198.336V22.48C198.336 24.8907 197.557 26.8213 196 28.272ZM224.934 30H221.286L211.622 19.248V30H208.646V7.6H211.622V17.712L220.966 7.6H224.614L214.726 18.48L224.934 30ZM239.295 30.416C237.204 30.416 235.412 29.9253 233.919 28.944C232.447 27.9627 231.412 26.6187 230.815 24.912L233.375 23.44C234.249 26.1493 236.244 27.504 239.359 27.504C240.895 27.504 242.068 27.1947 242.879 26.576C243.689 25.936 244.095 25.0933 244.095 24.048C244.095 22.9813 243.689 22.1813 242.879 21.648C242.068 21.1147 240.713 20.5493 238.815 19.952C237.876 19.6533 237.161 19.4187 236.671 19.248C236.18 19.056 235.561 18.7787 234.815 18.416C234.089 18.032 233.545 17.648 233.183 17.264C232.82 16.8587 232.489 16.336 232.191 15.696C231.913 15.056 231.775 14.3307 231.775 13.52C231.775 11.5787 232.457 10.0427 233.823 8.912C235.188 7.76 236.852 7.184 238.815 7.184C240.585 7.184 242.121 7.632 243.423 8.528C244.745 9.424 245.737 10.608 246.399 12.08L243.903 13.52C242.943 11.216 241.247 10.064 238.815 10.064C237.599 10.064 236.617 10.3627 235.871 10.96C235.124 11.5573 234.751 12.368 234.751 13.392C234.751 14.3733 235.103 15.12 235.807 15.632C236.511 16.144 237.727 16.6773 239.455 17.232C240.073 17.424 240.511 17.5627 240.767 17.648C241.023 17.7333 241.417 17.8827 241.951 18.096C242.505 18.3093 242.911 18.48 243.167 18.608C243.423 18.736 243.764 18.9173 244.191 19.152C244.639 19.3867 244.969 19.6107 245.183 19.824C245.396 20.0373 245.641 20.304 245.919 20.624C246.217 20.9227 246.431 21.232 246.559 21.552C246.687 21.872 246.793 22.2453 246.879 22.672C246.985 23.0773 247.039 23.5147 247.039 23.984C247.039 25.9467 246.324 27.5147 244.895 28.688C243.465 29.84 241.599 30.416 239.295 30.416Z" fill="#A92B26"/>
<circle cx="62" cy="19" r="10.5" stroke="#A92B26" stroke-width="3"/>
<circle cx="62" cy="19" r="6.5" stroke="#EFD7D6" stroke-width="3"/>
<circle cx="62" cy="19" r="2.5" stroke="#F9F0EF" stroke-width="3"/>
</svg>
